<svg width="699" height="230" viewBox="0 0 699 230" fill="none" xmlns="http://www.w3.org/2000/svg">
<rect width="699" height="230" fill="#2D51A3"/>
<mask id="path-1-outside-1" maskUnits="userSpaceOnUse" x="19.875" y="68.6765" width="658" height="127" fill="black">
<rect fill="white" x="19.875" y="68.6765" width="658" height="127"/>
<path d="M36.0312 150.969C36.3438 149.469 37.125 148.25 38.375 147.312C39.6875 146.312 41.1562 145.406 42.7812 144.594C44.4688 143.781 46.2188 143.031 48.0312 142.344C49.8438 141.594 51.5 140.812 53 140C54.5625 139.187 55.8438 138.25 56.8438 137.187C57.8438 136.062 58.3438 134.719 58.3438 133.156C58.3438 131.156 57.8125 129.5 56.75 128.187C55.75 126.875 54.375 125.75 52.625 124.812C50.9375 123.875 49 123.094 46.8125 122.469C44.625 121.844 42.375 121.219 40.0625 120.594C37.8125 119.906 35.5938 119.187 33.4062 118.437C31.2188 117.625 29.25 116.625 27.5 115.437C25.8125 114.25 24.4375 112.812 23.375 111.125C22.375 109.437 21.875 107.344 21.875 104.844C21.875 102.781 22.2812 100.844 23.0938 99.0312C23.9688 97.1562 25.0938 95.4062 26.4688 93.7812C27.9062 92.0937 29.5312 90.5625 31.3438 89.1875C33.2188 87.8125 35.1562 86.6562 37.1562 85.7187C39.2188 84.7812 41.2812 84.0625 43.3438 83.5625C45.4062 83 47.3125 82.7187 49.0625 82.7187H50.0938C50.6562 82.9062 51.4062 83.2187 52.3438 83.6562C53.2812 84.0937 54.1875 84.5312 55.0625 84.9687C55.9375 85.3437 56.6875 85.7187 57.3125 86.0937C57.9375 86.4062 58.25 86.5937 58.25 86.6562V88.8125C57.0625 88.9375 55.5312 89.1875 53.6562 89.5625C51.7812 89.875 49.8125 90.3125 47.75 90.875C45.6875 91.4375 43.5938 92.1562 41.4688 93.0312C39.3438 93.8437 37.4375 94.8125 35.75 95.9375C34.0625 97.0625 32.6875 98.375 31.625 99.875C30.5625 101.312 30.0312 102.969 30.0312 104.844C30.0312 107.531 30.9688 109.656 32.8438 111.219C34.7188 112.719 37.0625 113.969 39.875 114.969C42.6875 115.969 45.75 116.875 49.0625 117.687C52.4375 118.437 55.5312 119.375 58.3438 120.5C61.1562 121.562 63.5 123 65.375 124.812C67.25 126.562 68.1875 128.937 68.1875 131.937C68.1875 133.562 67.6875 135.281 66.6875 137.094C65.75 138.844 64.4688 140.594 62.8438 142.344C61.2812 144.031 59.5 145.656 57.5 147.219C55.5 148.781 53.4375 150.156 51.3125 151.344C49.25 152.469 47.2188 153.406 45.2188 154.156C43.2188 154.844 41.4375 155.187 39.875 155.187C39.375 155.187 38.8438 155.125 38.2812 155C37.7188 154.875 37.2188 154.687 36.7812 154.437C36.4062 154.125 36.0938 153.687 35.8438 153.125C35.6562 152.562 35.7188 151.844 36.0312 150.969Z"/>
<path d="M112.344 142.906C109.969 144.531 107.906 146 106.156 147.312C104.469 148.562 102.812 149.625 101.188 150.5C99.5625 151.375 97.8125 152.031 95.9375 152.469C94.125 152.906 91.875 153.125 89.1875 153.125C83.375 153.125 79.0625 151.594 76.25 148.531C73.4375 145.406 72.0312 140.781 72.0312 134.656C72.0312 132.281 72.3438 129.812 72.9688 127.25C73.5938 124.687 74.5 122.156 75.6875 119.656C76.9375 117.094 78.4062 114.687 80.0938 112.437C81.7812 110.125 83.6875 108.094 85.8125 106.344C87.9375 104.594 90.1875 103.219 92.5625 102.219C95 101.156 97.5625 100.625 100.25 100.625C104.75 101.062 108.281 102.187 110.844 104C113.406 105.75 115.344 108.031 116.656 110.844C117.969 113.594 118.875 116.687 119.375 120.125C119.875 123.5 120.25 127 120.5 130.625C120.812 134.25 121.188 137.875 121.625 141.5C122.062 145.125 122.969 148.469 124.344 151.531C123.531 153.594 122.75 155.031 122 155.844C121.312 156.719 120.531 156.875 119.656 156.312C118.781 155.75 117.75 154.375 116.562 152.187C115.438 150 114.031 146.906 112.344 142.906ZM80 134.844C80 138.406 80.6562 141.031 81.9688 142.719C83.3438 144.344 85.75 145.156 89.1875 145.156C91.75 145.156 94.1875 144.719 96.5 143.844C98.875 142.906 100.938 141.656 102.688 140.094C104.438 138.469 105.844 136.531 106.906 134.281C107.969 132.031 108.5 129.531 108.5 126.781C108.5 125.656 108.531 124.094 108.594 122.094C108.656 120.031 108.531 118 108.219 116C107.906 114 107.312 112.281 106.438 110.844C105.562 109.344 104.25 108.594 102.5 108.594C99.25 108.594 96.25 109.437 93.5 111.125C90.75 112.75 88.375 114.844 86.375 117.406C84.375 119.969 82.8125 122.812 81.6875 125.937C80.5625 129 80 131.969 80 134.844Z"/>
<path d="M129.688 106.156C130.125 104.656 130.625 103.969 131.188 104.094C131.812 104.219 132.562 104.937 133.438 106.25C134.312 107.562 135.281 109.312 136.344 111.5C137.469 113.687 138.656 116.062 139.906 118.625C141.156 121.125 142.5 123.687 143.938 126.312C145.438 128.937 146.969 131.344 148.531 133.531C150.156 135.719 151.844 137.531 153.594 138.969C155.406 140.406 157.25 141.25 159.125 141.5L166.625 102.687C166.75 101.625 167.219 101.031 168.031 100.906C168.906 100.719 169.75 100.625 170.562 100.625C173.375 100.625 174.781 101.937 174.781 104.562C174.781 105.937 174.656 108.125 174.406 111.125C174.156 114.125 173.75 117.437 173.188 121.062C172.625 124.625 171.938 128.312 171.125 132.125C170.312 135.875 169.344 139.312 168.219 142.437C167.094 145.562 165.781 148.125 164.281 150.125C162.844 152.125 161.25 153.125 159.5 153.125C156.938 153.125 154.406 152.281 151.906 150.594C149.406 148.844 147.031 146.594 144.781 143.844C142.594 141.031 140.562 137.906 138.688 134.469C136.875 131.031 135.281 127.594 133.906 124.156C132.594 120.656 131.562 117.312 130.812 114.125C130.062 110.937 129.688 108.281 129.688 106.156Z"/>
<path d="M220.719 142.906C218.344 144.531 216.281 146 214.531 147.312C212.844 148.562 211.188 149.625 209.562 150.5C207.938 151.375 206.188 152.031 204.312 152.469C202.5 152.906 200.25 153.125 197.562 153.125C191.75 153.125 187.438 151.594 184.625 148.531C181.812 145.406 180.406 140.781 180.406 134.656C180.406 132.281 180.719 129.812 181.344 127.25C181.969 124.687 182.875 122.156 184.062 119.656C185.312 117.094 186.781 114.687 188.469 112.437C190.156 110.125 192.062 108.094 194.188 106.344C196.312 104.594 198.562 103.219 200.938 102.219C203.375 101.156 205.938 100.625 208.625 100.625C213.125 101.062 216.656 102.187 219.219 104C221.781 105.75 223.719 108.031 225.031 110.844C226.344 113.594 227.25 116.687 227.75 120.125C228.25 123.5 228.625 127 228.875 130.625C229.188 134.25 229.562 137.875 230 141.5C230.438 145.125 231.344 148.469 232.719 151.531C231.906 153.594 231.125 155.031 230.375 155.844C229.688 156.719 228.906 156.875 228.031 156.312C227.156 155.75 226.125 154.375 224.938 152.187C223.812 150 222.406 146.906 220.719 142.906ZM188.375 134.844C188.375 138.406 189.031 141.031 190.344 142.719C191.719 144.344 194.125 145.156 197.562 145.156C200.125 145.156 202.562 144.719 204.875 143.844C207.25 142.906 209.312 141.656 211.062 140.094C212.812 138.469 214.219 136.531 215.281 134.281C216.344 132.031 216.875 129.531 216.875 126.781C216.875 125.656 216.906 124.094 216.969 122.094C217.031 120.031 216.906 118 216.594 116C216.281 114 215.688 112.281 214.812 110.844C213.938 109.344 212.625 108.594 210.875 108.594C207.625 108.594 204.625 109.437 201.875 111.125C199.125 112.75 196.75 114.844 194.75 117.406C192.75 119.969 191.188 122.812 190.062 125.937C188.938 129 188.375 131.969 188.375 134.844Z"/>
<path d="M238.625 123.406C238.625 121.781 239.031 120.625 239.844 119.937C240.656 119.187 241.969 118.812 243.781 118.812H244.719C244.906 119.812 245.125 120.969 245.375 122.281C245.625 123.594 246 124.937 246.5 126.312C247 127.687 247.594 128.969 248.281 130.156C248.969 131.281 249.812 132.187 250.812 132.875C250.875 130.687 251.406 128.594 252.406 126.594C253.469 124.531 254.75 122.719 256.25 121.156C257.812 119.531 259.5 118.187 261.312 117.125C263.188 116 265.031 115.25 266.844 114.875H268.906C271.906 114.875 274.469 115.562 276.594 116.937C278.719 118.25 280.469 120 281.844 122.187C283.281 124.312 284.375 126.75 285.125 129.5C285.875 132.25 286.438 135.062 286.812 137.937C287.25 140.75 287.5 143.5 287.562 146.187C287.688 148.812 287.75 151.062 287.75 152.937H280.906C280.531 149.187 280.062 145.594 279.5 142.156C279.312 140.781 279.062 139.344 278.75 137.844C278.438 136.281 278.094 134.844 277.719 133.531C277.344 132.156 276.938 130.906 276.5 129.781C276.062 128.594 275.562 127.594 275 126.781C274.75 126.531 274.406 126.187 273.969 125.75C273.594 125.312 273.188 124.875 272.75 124.437C272.312 124 271.906 123.625 271.531 123.312C271.156 123 270.938 122.844 270.875 122.844C269 122.344 267.375 122.719 266 123.969C264.625 125.156 263.406 126.781 262.344 128.844C261.281 130.906 260.406 133.25 259.719 135.875C259.094 138.5 258.562 141.031 258.125 143.469C257.688 145.844 257.375 147.937 257.188 149.75C257 151.5 256.875 152.562 256.812 152.937C255.25 154.062 253.781 154.406 252.406 153.969C251.031 153.469 249.719 152.469 248.469 150.969C247.281 149.469 246.188 147.594 245.188 145.344C244.25 143.094 243.375 140.719 242.562 138.219C241.75 135.656 241 133.094 240.312 130.531C239.688 127.969 239.125 125.594 238.625 123.406Z"/>
<path d="M337.438 85.0625C338.188 81.25 339.562 78.25 341.562 76.0625C343.562 73.8125 345.844 72.2812 348.406 71.4687C351.031 70.6562 353.812 70.4687 356.75 70.9062C359.75 71.2812 362.562 72.1875 365.188 73.625C367.875 75.0625 370.219 76.9375 372.219 79.25C374.219 81.5 375.625 84.0937 376.438 87.0312C377.25 89.9062 377.25 93.0312 376.438 96.4062C375.625 99.7812 373.781 103.25 370.906 106.812C373.156 107.625 375.25 108.437 377.188 109.25C379.125 110.062 380.75 111.062 382.062 112.25C383.438 113.437 384.5 114.875 385.25 116.562C386 118.25 386.375 120.344 386.375 122.844C386.375 124.906 386 127.094 385.25 129.406C384.5 131.719 383.438 134 382.062 136.25C380.75 138.5 379.188 140.656 377.375 142.719C375.625 144.719 373.719 146.5 371.656 148.062C369.594 149.625 367.469 150.875 365.281 151.812C363.156 152.687 361.062 153.125 359 153.125C357.625 153.125 356.281 152.25 354.969 150.5C353.656 148.75 352.375 146.437 351.125 143.562C349.875 140.687 348.656 137.375 347.469 133.625C346.281 129.875 345.188 126 344.188 122C343.188 117.937 342.281 113.937 341.469 110C340.656 106 339.938 102.312 339.312 98.9375C338.75 95.5625 338.281 92.6562 337.906 90.2187C337.594 87.7187 337.438 86 337.438 85.0625ZM354.125 125.656C354.125 126.719 354.375 128.125 354.875 129.875C355.375 131.625 356 133.375 356.75 135.125C357.562 136.875 358.438 138.5 359.375 140C360.312 141.437 361.312 142.406 362.375 142.906C363.25 143.406 364.281 143.375 365.469 142.812C366.656 142.187 367.844 141.25 369.031 140C370.281 138.687 371.469 137.219 372.594 135.594C373.719 133.906 374.719 132.25 375.594 130.625C376.531 129 377.25 127.5 377.75 126.125C378.312 124.687 378.594 123.594 378.594 122.844C378.594 121.219 378.375 119.906 377.938 118.906C377.5 117.844 376.844 117 375.969 116.375C375.156 115.75 374.156 115.312 372.969 115.062C371.844 114.812 370.594 114.687 369.219 114.687C367.656 114.687 366 114.937 364.25 115.437C362.5 115.937 360.875 116.656 359.375 117.594C357.938 118.531 356.688 119.687 355.625 121.062C354.625 122.437 354.125 123.969 354.125 125.656ZM348.125 93.7812C348.125 94.9062 348.094 96.3125 348.031 98C347.969 99.625 347.969 101.312 348.031 103.062C348.094 104.812 348.281 106.562 348.594 108.312C348.906 110.062 349.469 111.562 350.281 112.812C353.344 112.25 356 111.187 358.25 109.625C360.562 108.062 362.406 106.25 363.781 104.187C365.219 102.062 366.25 99.8125 366.875 97.4375C367.5 95.0625 367.719 92.75 367.531 90.5C367.406 88.25 366.875 86.1875 365.938 84.3125C365.062 82.4375 363.812 81 362.188 80C360.562 78.9375 358.594 78.4062 356.281 78.4062C353.969 78.4062 351.312 79.1562 348.312 80.6562C348.312 81.1562 348.281 82.0312 348.219 83.2812C348.219 84.5312 348.188 85.8437 348.125 87.2187C348.125 88.5937 348.125 89.9062 348.125 91.1562C348.125 92.4062 348.125 93.2812 348.125 93.7812Z"/>
<path d="M432.688 142.906C430.312 144.531 428.25 146 426.5 147.312C424.812 148.562 423.156 149.625 421.531 150.5C419.906 151.375 418.156 152.031 416.281 152.469C414.469 152.906 412.219 153.125 409.531 153.125C403.719 153.125 399.406 151.594 396.594 148.531C393.781 145.406 392.375 140.781 392.375 134.656C392.375 132.281 392.688 129.812 393.312 127.25C393.938 124.687 394.844 122.156 396.031 119.656C397.281 117.094 398.75 114.687 400.438 112.437C402.125 110.125 404.031 108.094 406.156 106.344C408.281 104.594 410.531 103.219 412.906 102.219C415.344 101.156 417.906 100.625 420.594 100.625C425.094 101.062 428.625 102.187 431.188 104C433.75 105.75 435.688 108.031 437 110.844C438.312 113.594 439.219 116.687 439.719 120.125C440.219 123.5 440.594 127 440.844 130.625C441.156 134.25 441.531 137.875 441.969 141.5C442.406 145.125 443.312 148.469 444.688 151.531C443.875 153.594 443.094 155.031 442.344 155.844C441.656 156.719 440.875 156.875 440 156.312C439.125 155.75 438.094 154.375 436.906 152.187C435.781 150 434.375 146.906 432.688 142.906ZM400.344 134.844C400.344 138.406 401 141.031 402.312 142.719C403.688 144.344 406.094 145.156 409.531 145.156C412.094 145.156 414.531 144.719 416.844 143.844C419.219 142.906 421.281 141.656 423.031 140.094C424.781 138.469 426.188 136.531 427.25 134.281C428.312 132.031 428.844 129.531 428.844 126.781C428.844 125.656 428.875 124.094 428.938 122.094C429 120.031 428.875 118 428.562 116C428.25 114 427.656 112.281 426.781 110.844C425.906 109.344 424.594 108.594 422.844 108.594C419.594 108.594 416.594 109.437 413.844 111.125C411.094 112.75 408.719 114.844 406.719 117.406C404.719 119.969 403.156 122.812 402.031 125.937C400.906 129 400.344 131.969 400.344 134.844Z"/>
<path d="M464.75 150.969C462.812 145.344 460.969 140.094 459.219 135.219C457.531 130.281 456.031 125.469 454.719 120.781C453.469 116.031 452.469 111.219 451.719 106.344C450.969 101.469 450.594 96.25 450.594 90.6875C450.594 90.25 450.594 89.4687 450.594 88.3437C450.656 87.1562 450.688 85.9375 450.688 84.6875C450.688 83.4375 450.688 82.25 450.688 81.125C450.75 79.9375 450.781 79.125 450.781 78.6875C451.344 77.4375 452.312 76.2812 453.688 75.2187C455.125 74.1562 456.562 73.625 458 73.625C458 78.25 458.062 83.1875 458.188 88.4375C458.312 93.625 458.688 98.8125 459.312 104C460 109.187 461.062 114.281 462.5 119.281C464 124.219 466.094 128.75 468.781 132.875C468.844 131.375 468.906 129.719 468.969 127.906C469.031 126.094 469.188 124.281 469.438 122.469C469.75 120.656 470.219 118.906 470.844 117.219C471.469 115.531 472.375 114.031 473.562 112.719C474.812 111.406 476.406 110.375 478.344 109.625C480.344 108.875 482.844 108.531 485.844 108.594C488.531 108.594 490.938 109.094 493.062 110.094C495.25 111.094 497.062 112.469 498.5 114.219C500 115.906 501.125 117.906 501.875 120.219C502.688 122.469 503.094 124.875 503.094 127.437C503.094 130.875 502.25 134.25 500.562 137.562C498.875 140.875 496.625 143.844 493.812 146.469C491.062 149.094 487.969 151.219 484.531 152.844C481.094 154.406 477.594 155.187 474.031 155.187C472.219 155.187 470.469 154.875 468.781 154.25C467.094 153.562 465.75 152.469 464.75 150.969ZM486.969 116.75C485.719 117.437 484.406 118.25 483.031 119.187C481.656 120.125 480.375 121.594 479.188 123.594C478.062 125.531 477.094 128.187 476.281 131.562C475.469 134.937 474.969 139.406 474.781 144.969C474.906 144.969 475.219 145 475.719 145.062C476.281 145.125 476.656 145.156 476.844 145.156C478.531 145.156 480.438 144.625 482.562 143.562C484.75 142.5 486.844 141.187 488.844 139.625C490.906 138.062 492.688 136.344 494.188 134.469C495.688 132.531 496.594 130.687 496.906 128.937C497.094 127.875 496.875 126.656 496.25 125.281C495.625 123.906 494.781 122.594 493.719 121.344C492.719 120.031 491.594 118.937 490.344 118.062C489.156 117.187 488.031 116.75 486.969 116.75Z"/>
<path d="M507.219 106.531C507.219 105.969 507.219 105.406 507.219 104.844C507.281 104.219 507.406 103.656 507.594 103.156C507.844 102.594 508.156 102.187 508.531 101.937C508.969 101.625 509.594 101.469 510.406 101.469C510.469 101.469 510.531 101.469 510.594 101.469C510.719 101.469 510.844 101.469 510.969 101.469C511.156 101.531 511.312 101.562 511.438 101.562C512.625 103.187 513.656 105.281 514.531 107.844C515.406 110.344 516.25 113.031 517.062 115.906C517.875 118.719 518.75 121.594 519.688 124.531C520.625 127.406 521.844 130 523.344 132.312C524.844 134.625 526.688 136.469 528.875 137.844C531.062 139.219 533.781 139.812 537.031 139.625C538.469 139.625 539.406 138.844 539.844 137.281C540.281 135.719 540.5 133.719 540.5 131.281C540.562 128.844 540.5 126.156 540.312 123.219C540.188 120.281 540.188 117.5 540.312 114.875C540.5 112.187 540.969 109.844 541.719 107.844C542.531 105.844 543.906 104.5 545.844 103.812C546.656 105.437 547.312 108 547.812 111.5C548.375 114.937 548.781 118.937 549.031 123.5C549.281 128 549.406 132.906 549.406 138.219C549.406 143.469 549.281 148.719 549.031 153.969C548.781 159.156 548.406 164.156 547.906 168.969C547.406 173.781 546.844 178 546.219 181.625C545.594 185.25 544.844 188.094 543.969 190.156C543.156 192.281 542.281 193.187 541.344 192.875C540.031 191.625 539 190 538.25 188C537.562 186 537.062 183.781 536.75 181.344C536.5 178.906 536.406 176.312 536.469 173.562C536.531 170.875 536.625 168.156 536.75 165.406C536.938 162.656 537.125 159.969 537.312 157.344C537.562 154.719 537.688 152.312 537.688 150.125C535.438 150.312 533.125 149.969 530.75 149.094C528.438 148.219 526.156 146.875 523.906 145.062C521.656 143.187 519.5 140.937 517.438 138.312C515.438 135.687 513.656 132.719 512.094 129.406C510.594 126.094 509.406 122.531 508.531 118.719C507.656 114.844 507.219 110.781 507.219 106.531Z"/>
<path d="M596.375 98.5625C596.375 97.5625 596.562 96.6562 596.938 95.8437C597.375 94.9687 598.188 94.5312 599.375 94.5312C600.375 94.5312 601.344 95.5625 602.281 97.625C603.281 99.6875 604.281 102.344 605.281 105.594C606.344 108.781 607.438 112.312 608.562 116.187C609.688 120 610.875 123.719 612.125 127.344C613.375 130.906 614.688 134.125 616.062 137C617.438 139.812 618.906 141.781 620.469 142.906C621.969 142.281 623.156 141.187 624.031 139.625C624.969 138 625.719 136.094 626.281 133.906C626.844 131.656 627.25 129.25 627.5 126.687C627.812 124.062 628.094 121.469 628.344 118.906C628.656 116.281 628.969 113.75 629.281 111.312C629.594 108.812 630.031 106.625 630.594 104.75C631.219 102.875 632 101.375 632.938 100.25C633.875 99.125 635.062 98.5625 636.5 98.5625C637.375 98.5625 638.156 98.6562 638.844 98.8437C639.531 98.9687 640.125 99.5937 640.625 100.719C640.875 101.531 641.281 102.719 641.844 104.281C642.406 105.844 643.031 107.656 643.719 109.719C644.469 111.781 645.281 114 646.156 116.375C647.094 118.687 648.031 120.969 648.969 123.219C649.969 125.469 650.938 127.625 651.875 129.687C652.812 131.687 653.719 133.406 654.594 134.844C654.719 135.094 655.031 135.5 655.531 136.062C656.094 136.562 656.469 136.844 656.656 136.906L660.688 132.875C661.75 131.812 662.562 130.25 663.125 128.187C663.688 126.062 664.094 123.625 664.344 120.875C664.656 118.125 664.844 115.187 664.906 112.062C665.031 108.875 665.125 105.719 665.188 102.594C665.25 99.4687 665.375 96.4375 665.562 93.5C665.75 90.5625 666.062 88 666.5 85.8125C666.938 83.5625 667.562 81.7812 668.375 80.4687C669.188 79.1562 670.312 78.5 671.75 78.5C671.812 78.5 671.875 78.5312 671.938 78.5937C672.062 78.5937 672.188 78.5937 672.312 78.5937C672.5 78.6562 672.625 78.6875 672.688 78.6875C672.75 78.6875 672.906 78.8125 673.156 79.0625C673.406 79.25 673.625 79.4375 673.812 79.625C674.062 79.8125 674.25 80 674.375 80.1875C674.562 80.375 674.688 80.5312 674.75 80.6562C674.75 81.0937 674.75 81.875 674.75 83C674.812 84.125 674.844 85.3437 674.844 86.6562C674.844 87.9687 674.844 89.2187 674.844 90.4062C674.906 91.5312 674.938 92.3125 674.938 92.75C674.938 94 674.906 95.7187 674.844 97.9062C674.844 100.094 674.75 102.594 674.562 105.406C674.438 108.156 674.219 111.125 673.906 114.312C673.656 117.437 673.25 120.562 672.688 123.687C672.125 126.75 671.406 129.719 670.531 132.594C669.719 135.406 668.688 137.906 667.438 140.094C666.25 142.219 664.844 143.937 663.219 145.25C661.656 146.5 659.781 147.125 657.594 147.125C655.469 147.125 653.656 146.437 652.156 145.062C650.719 143.625 649.469 141.875 648.406 139.812C647.344 137.687 646.438 135.406 645.688 132.969C644.938 130.469 644.156 128.156 643.344 126.031C642.594 123.906 641.75 122.156 640.812 120.781C639.938 119.344 638.844 118.625 637.531 118.625C637.406 118.625 637.219 118.656 636.969 118.719C636.781 118.781 636.625 118.812 636.5 118.812C636.438 119.062 636.25 120.156 635.938 122.094C635.625 124.031 635.188 126.344 634.625 129.031C634.062 131.656 633.375 134.5 632.562 137.562C631.75 140.625 630.812 143.437 629.75 146C628.75 148.562 627.625 150.719 626.375 152.469C625.188 154.156 623.875 155 622.438 155C619.5 155 616.812 153.906 614.375 151.719C611.938 149.469 609.75 146.594 607.812 143.094C605.938 139.531 604.281 135.594 602.844 131.281C601.406 126.969 600.188 122.75 599.188 118.625C598.25 114.437 597.531 110.562 597.031 107C596.594 103.375 596.375 100.562 596.375 98.5625Z"/>
</mask>
<path d="M36.0312 150.969C36.3438 149.469 37.125 148.25 38.375 147.312C39.6875 146.312 41.1562 145.406 42.7812 144.594C44.4688 143.781 46.2188 143.031 48.0312 142.344C49.8438 141.594 51.5 140.812 53 140C54.5625 139.187 55.8438 138.25 56.8438 137.187C57.8438 136.062 58.3438 134.719 58.3438 133.156C58.3438 131.156 57.8125 129.5 56.75 128.187C55.75 126.875 54.375 125.75 52.625 124.812C50.9375 123.875 49 123.094 46.8125 122.469C44.625 121.844 42.375 121.219 40.0625 120.594C37.8125 119.906 35.5938 119.187 33.4062 118.437C31.2188 117.625 29.25 116.625 27.5 115.437C25.8125 114.25 24.4375 112.812 23.375 111.125C22.375 109.437 21.875 107.344 21.875 104.844C21.875 102.781 22.2812 100.844 23.0938 99.0312C23.9688 97.1562 25.0938 95.4062 26.4688 93.7812C27.9062 92.0937 29.5312 90.5625 31.3438 89.1875C33.2188 87.8125 35.1562 86.6562 37.1562 85.7187C39.2188 84.7812 41.2812 84.0625 43.3438 83.5625C45.4062 83 47.3125 82.7187 49.0625 82.7187H50.0938C50.6562 82.9062 51.4062 83.2187 52.3438 83.6562C53.2812 84.0937 54.1875 84.5312 55.0625 84.9687C55.9375 85.3437 56.6875 85.7187 57.3125 86.0937C57.9375 86.4062 58.25 86.5937 58.25 86.6562V88.8125C57.0625 88.9375 55.5312 89.1875 53.6562 89.5625C51.7812 89.875 49.8125 90.3125 47.75 90.875C45.6875 91.4375 43.5938 92.1562 41.4688 93.0312C39.3438 93.8437 37.4375 94.8125 35.75 95.9375C34.0625 97.0625 32.6875 98.375 31.625 99.875C30.5625 101.312 30.0312 102.969 30.0312 104.844C30.0312 107.531 30.9688 109.656 32.8438 111.219C34.7188 112.719 37.0625 113.969 39.875 114.969C42.6875 115.969 45.75 116.875 49.0625 117.687C52.4375 118.437 55.5312 119.375 58.3438 120.5C61.1562 121.562 63.5 123 65.375 124.812C67.25 126.562 68.1875 128.937 68.1875 131.937C68.1875 133.562 67.6875 135.281 66.6875 137.094C65.75 138.844 64.4688 140.594 62.8438 142.344C61.2812 144.031 59.5 145.656 57.5 147.219C55.5 148.781 53.4375 150.156 51.3125 151.344C49.25 152.469 47.2188 153.406 45.2188 154.156C43.2188 154.844 41.4375 155.187 39.875 155.187C39.375 155.187 38.8438 155.125 38.2812 155C37.7188 154.875 37.2188 154.687 36.7812 154.437C36.4062 154.125 36.0938 153.687 35.8438 153.125C35.6562 152.562 35.7188 151.844 36.0312 150.969Z" fill="white"/>
<path d="M112.344 142.906C109.969 144.531 107.906 146 106.156 147.312C104.469 148.562 102.812 149.625 101.188 150.5C99.5625 151.375 97.8125 152.031 95.9375 152.469C94.125 152.906 91.875 153.125 89.1875 153.125C83.375 153.125 79.0625 151.594 76.25 148.531C73.4375 145.406 72.0312 140.781 72.0312 134.656C72.0312 132.281 72.3438 129.812 72.9688 127.25C73.5938 124.687 74.5 122.156 75.6875 119.656C76.9375 117.094 78.4062 114.687 80.0938 112.437C81.7812 110.125 83.6875 108.094 85.8125 106.344C87.9375 104.594 90.1875 103.219 92.5625 102.219C95 101.156 97.5625 100.625 100.25 100.625C104.75 101.062 108.281 102.187 110.844 104C113.406 105.75 115.344 108.031 116.656 110.844C117.969 113.594 118.875 116.687 119.375 120.125C119.875 123.5 120.25 127 120.5 130.625C120.812 134.25 121.188 137.875 121.625 141.5C122.062 145.125 122.969 148.469 124.344 151.531C123.531 153.594 122.75 155.031 122 155.844C121.312 156.719 120.531 156.875 119.656 156.312C118.781 155.75 117.75 154.375 116.562 152.187C115.438 150 114.031 146.906 112.344 142.906ZM80 134.844C80 138.406 80.6562 141.031 81.9688 142.719C83.3438 144.344 85.75 145.156 89.1875 145.156C91.75 145.156 94.1875 144.719 96.5 143.844C98.875 142.906 100.938 141.656 102.688 140.094C104.438 138.469 105.844 136.531 106.906 134.281C107.969 132.031 108.5 129.531 108.5 126.781C108.5 125.656 108.531 124.094 108.594 122.094C108.656 120.031 108.531 118 108.219 116C107.906 114 107.312 112.281 106.438 110.844C105.562 109.344 104.25 108.594 102.5 108.594C99.25 108.594 96.25 109.437 93.5 111.125C90.75 112.75 88.375 114.844 86.375 117.406C84.375 119.969 82.8125 122.812 81.6875 125.937C80.5625 129 80 131.969 80 134.844Z" fill="white"/>
<path d="M129.688 106.156C130.125 104.656 130.625 103.969 131.188 104.094C131.812 104.219 132.562 104.937 133.438 106.25C134.312 107.562 135.281 109.312 136.344 111.5C137.469 113.687 138.656 116.062 139.906 118.625C141.156 121.125 142.5 123.687 143.938 126.312C145.438 128.937 146.969 131.344 148.531 133.531C150.156 135.719 151.844 137.531 153.594 138.969C155.406 140.406 157.25 141.25 159.125 141.5L166.625 102.687C166.75 101.625 167.219 101.031 168.031 100.906C168.906 100.719 169.75 100.625 170.562 100.625C173.375 100.625 174.781 101.937 174.781 104.562C174.781 105.937 174.656 108.125 174.406 111.125C174.156 114.125 173.75 117.437 173.188 121.062C172.625 124.625 171.938 128.312 171.125 132.125C170.312 135.875 169.344 139.312 168.219 142.437C167.094 145.562 165.781 148.125 164.281 150.125C162.844 152.125 161.25 153.125 159.5 153.125C156.938 153.125 154.406 152.281 151.906 150.594C149.406 148.844 147.031 146.594 144.781 143.844C142.594 141.031 140.562 137.906 138.688 134.469C136.875 131.031 135.281 127.594 133.906 124.156C132.594 120.656 131.562 117.312 130.812 114.125C130.062 110.937 129.688 108.281 129.688 106.156Z" fill="white"/>
<path d="M220.719 142.906C218.344 144.531 216.281 146 214.531 147.312C212.844 148.562 211.188 149.625 209.562 150.5C207.938 151.375 206.188 152.031 204.312 152.469C202.5 152.906 200.25 153.125 197.562 153.125C191.75 153.125 187.438 151.594 184.625 148.531C181.812 145.406 180.406 140.781 180.406 134.656C180.406 132.281 180.719 129.812 181.344 127.25C181.969 124.687 182.875 122.156 184.062 119.656C185.312 117.094 186.781 114.687 188.469 112.437C190.156 110.125 192.062 108.094 194.188 106.344C196.312 104.594 198.562 103.219 200.938 102.219C203.375 101.156 205.938 100.625 208.625 100.625C213.125 101.062 216.656 102.187 219.219 104C221.781 105.75 223.719 108.031 225.031 110.844C226.344 113.594 227.25 116.687 227.75 120.125C228.25 123.5 228.625 127 228.875 130.625C229.188 134.25 229.562 137.875 230 141.5C230.438 145.125 231.344 148.469 232.719 151.531C231.906 153.594 231.125 155.031 230.375 155.844C229.688 156.719 228.906 156.875 228.031 156.312C227.156 155.75 226.125 154.375 224.938 152.187C223.812 150 222.406 146.906 220.719 142.906ZM188.375 134.844C188.375 138.406 189.031 141.031 190.344 142.719C191.719 144.344 194.125 145.156 197.562 145.156C200.125 145.156 202.562 144.719 204.875 143.844C207.25 142.906 209.312 141.656 211.062 140.094C212.812 138.469 214.219 136.531 215.281 134.281C216.344 132.031 216.875 129.531 216.875 126.781C216.875 125.656 216.906 124.094 216.969 122.094C217.031 120.031 216.906 118 216.594 116C216.281 114 215.688 112.281 214.812 110.844C213.938 109.344 212.625 108.594 210.875 108.594C207.625 108.594 204.625 109.437 201.875 111.125C199.125 112.75 196.75 114.844 194.75 117.406C192.75 119.969 191.188 122.812 190.062 125.937C188.938 129 188.375 131.969 188.375 134.844Z" fill="white"/>
<path d="M238.625 123.406C238.625 121.781 239.031 120.625 239.844 119.937C240.656 119.187 241.969 118.812 243.781 118.812H244.719C244.906 119.812 245.125 120.969 245.375 122.281C245.625 123.594 246 124.937 246.5 126.312C247 127.687 247.594 128.969 248.281 130.156C248.969 131.281 249.812 132.187 250.812 132.875C250.875 130.687 251.406 128.594 252.406 126.594C253.469 124.531 254.75 122.719 256.25 121.156C257.812 119.531 259.5 118.187 261.312 117.125C263.188 116 265.031 115.25 266.844 114.875H268.906C271.906 114.875 274.469 115.562 276.594 116.937C278.719 118.25 280.469 120 281.844 122.187C283.281 124.312 284.375 126.75 285.125 129.5C285.875 132.25 286.438 135.062 286.812 137.937C287.25 140.75 287.5 143.5 287.562 146.187C287.688 148.812 287.75 151.062 287.75 152.937H280.906C280.531 149.187 280.062 145.594 279.5 142.156C279.312 140.781 279.062 139.344 278.75 137.844C278.438 136.281 278.094 134.844 277.719 133.531C277.344 132.156 276.938 130.906 276.5 129.781C276.062 128.594 275.562 127.594 275 126.781C274.75 126.531 274.406 126.187 273.969 125.75C273.594 125.312 273.188 124.875 272.75 124.437C272.312 124 271.906 123.625 271.531 123.312C271.156 123 270.938 122.844 270.875 122.844C269 122.344 267.375 122.719 266 123.969C264.625 125.156 263.406 126.781 262.344 128.844C261.281 130.906 260.406 133.25 259.719 135.875C259.094 138.5 258.562 141.031 258.125 143.469C257.688 145.844 257.375 147.937 257.188 149.75C257 151.5 256.875 152.562 256.812 152.937C255.25 154.062 253.781 154.406 252.406 153.969C251.031 153.469 249.719 152.469 248.469 150.969C247.281 149.469 246.188 147.594 245.188 145.344C244.25 143.094 243.375 140.719 242.562 138.219C241.75 135.656 241 133.094 240.312 130.531C239.688 127.969 239.125 125.594 238.625 123.406Z" fill="white"/>
<path d="M337.438 85.0625C338.188 81.25 339.562 78.25 341.562 76.0625C343.562 73.8125 345.844 72.2812 348.406 71.4687C351.031 70.6562 353.812 70.4687 356.75 70.9062C359.75 71.2812 362.562 72.1875 365.188 73.625C367.875 75.0625 370.219 76.9375 372.219 79.25C374.219 81.5 375.625 84.0937 376.438 87.0312C377.25 89.9062 377.25 93.0312 376.438 96.4062C375.625 99.7812 373.781 103.25 370.906 106.812C373.156 107.625 375.25 108.437 377.188 109.25C379.125 110.062 380.75 111.062 382.062 112.25C383.438 113.437 384.5 114.875 385.25 116.562C386 118.25 386.375 120.344 386.375 122.844C386.375 124.906 386 127.094 385.25 129.406C384.5 131.719 383.438 134 382.062 136.25C380.75 138.5 379.188 140.656 377.375 142.719C375.625 144.719 373.719 146.5 371.656 148.062C369.594 149.625 367.469 150.875 365.281 151.812C363.156 152.687 361.062 153.125 359 153.125C357.625 153.125 356.281 152.25 354.969 150.5C353.656 148.75 352.375 146.437 351.125 143.562C349.875 140.687 348.656 137.375 347.469 133.625C346.281 129.875 345.188 126 344.188 122C343.188 117.937 342.281 113.937 341.469 110C340.656 106 339.938 102.312 339.312 98.9375C338.75 95.5625 338.281 92.6562 337.906 90.2187C337.594 87.7187 337.438 86 337.438 85.0625ZM354.125 125.656C354.125 126.719 354.375 128.125 354.875 129.875C355.375 131.625 356 133.375 356.75 135.125C357.562 136.875 358.438 138.5 359.375 140C360.312 141.437 361.312 142.406 362.375 142.906C363.25 143.406 364.281 143.375 365.469 142.812C366.656 142.187 367.844 141.25 369.031 140C370.281 138.687 371.469 137.219 372.594 135.594C373.719 133.906 374.719 132.25 375.594 130.625C376.531 129 377.25 127.5 377.75 126.125C378.312 124.687 378.594 123.594 378.594 122.844C378.594 121.219 378.375 119.906 377.938 118.906C377.5 117.844 376.844 117 375.969 116.375C375.156 115.75 374.156 115.312 372.969 115.062C371.844 114.812 370.594 114.687 369.219 114.687C367.656 114.687 366 114.937 364.25 115.437C362.5 115.937 360.875 116.656 359.375 117.594C357.938 118.531 356.688 119.687 355.625 121.062C354.625 122.437 354.125 123.969 354.125 125.656ZM348.125 93.7812C348.125 94.9062 348.094 96.3125 348.031 98C347.969 99.625 347.969 101.312 348.031 103.062C348.094 104.812 348.281 106.562 348.594 108.312C348.906 110.062 349.469 111.562 350.281 112.812C353.344 112.25 356 111.187 358.25 109.625C360.562 108.062 362.406 106.25 363.781 104.187C365.219 102.062 366.25 99.8125 366.875 97.4375C367.5 95.0625 367.719 92.75 367.531 90.5C367.406 88.25 366.875 86.1875 365.938 84.3125C365.062 82.4375 363.812 81 362.188 80C360.562 78.9375 358.594 78.4062 356.281 78.4062C353.969 78.4062 351.312 79.1562 348.312 80.6562C348.312 81.1562 348.281 82.0312 348.219 83.2812C348.219 84.5312 348.188 85.8437 348.125 87.2187C348.125 88.5937 348.125 89.9062 348.125 91.1562C348.125 92.4062 348.125 93.2812 348.125 93.7812Z" fill="white"/>
<path d="M432.688 142.906C430.312 144.531 428.25 146 426.5 147.312C424.812 148.562 423.156 149.625 421.531 150.5C419.906 151.375 418.156 152.031 416.281 152.469C414.469 152.906 412.219 153.125 409.531 153.125C403.719 153.125 399.406 151.594 396.594 148.531C393.781 145.406 392.375 140.781 392.375 134.656C392.375 132.281 392.688 129.812 393.312 127.25C393.938 124.687 394.844 122.156 396.031 119.656C397.281 117.094 398.75 114.687 400.438 112.437C402.125 110.125 404.031 108.094 406.156 106.344C408.281 104.594 410.531 103.219 412.906 102.219C415.344 101.156 417.906 100.625 420.594 100.625C425.094 101.062 428.625 102.187 431.188 104C433.75 105.75 435.688 108.031 437 110.844C438.312 113.594 439.219 116.687 439.719 120.125C440.219 123.5 440.594 127 440.844 130.625C441.156 134.25 441.531 137.875 441.969 141.5C442.406 145.125 443.312 148.469 444.688 151.531C443.875 153.594 443.094 155.031 442.344 155.844C441.656 156.719 440.875 156.875 440 156.312C439.125 155.75 438.094 154.375 436.906 152.187C435.781 150 434.375 146.906 432.688 142.906ZM400.344 134.844C400.344 138.406 401 141.031 402.312 142.719C403.688 144.344 406.094 145.156 409.531 145.156C412.094 145.156 414.531 144.719 416.844 143.844C419.219 142.906 421.281 141.656 423.031 140.094C424.781 138.469 426.188 136.531 427.25 134.281C428.312 132.031 428.844 129.531 428.844 126.781C428.844 125.656 428.875 124.094 428.938 122.094C429 120.031 428.875 118 428.562 116C428.25 114 427.656 112.281 426.781 110.844C425.906 109.344 424.594 108.594 422.844 108.594C419.594 108.594 416.594 109.437 413.844 111.125C411.094 112.75 408.719 114.844 406.719 117.406C404.719 119.969 403.156 122.812 402.031 125.937C400.906 129 400.344 131.969 400.344 134.844Z" fill="white"/>
<path d="M464.75 150.969C462.812 145.344 460.969 140.094 459.219 135.219C457.531 130.281 456.031 125.469 454.719 120.781C453.469 116.031 452.469 111.219 451.719 106.344C450.969 101.469 450.594 96.25 450.594 90.6875C450.594 90.25 450.594 89.4687 450.594 88.3437C450.656 87.1562 450.688 85.9375 450.688 84.6875C450.688 83.4375 450.688 82.25 450.688 81.125C450.75 79.9375 450.781 79.125 450.781 78.6875C451.344 77.4375 452.312 76.2812 453.688 75.2187C455.125 74.1562 456.562 73.625 458 73.625C458 78.25 458.062 83.1875 458.188 88.4375C458.312 93.625 458.688 98.8125 459.312 104C460 109.187 461.062 114.281 462.5 119.281C464 124.219 466.094 128.75 468.781 132.875C468.844 131.375 468.906 129.719 468.969 127.906C469.031 126.094 469.188 124.281 469.438 122.469C469.75 120.656 470.219 118.906 470.844 117.219C471.469 115.531 472.375 114.031 473.562 112.719C474.812 111.406 476.406 110.375 478.344 109.625C480.344 108.875 482.844 108.531 485.844 108.594C488.531 108.594 490.938 109.094 493.062 110.094C495.25 111.094 497.062 112.469 498.5 114.219C500 115.906 501.125 117.906 501.875 120.219C502.688 122.469 503.094 124.875 503.094 127.437C503.094 130.875 502.25 134.25 500.562 137.562C498.875 140.875 496.625 143.844 493.812 146.469C491.062 149.094 487.969 151.219 484.531 152.844C481.094 154.406 477.594 155.187 474.031 155.187C472.219 155.187 470.469 154.875 468.781 154.25C467.094 153.562 465.75 152.469 464.75 150.969ZM486.969 116.75C485.719 117.437 484.406 118.25 483.031 119.187C481.656 120.125 480.375 121.594 479.188 123.594C478.062 125.531 477.094 128.187 476.281 131.562C475.469 134.937 474.969 139.406 474.781 144.969C474.906 144.969 475.219 145 475.719 145.062C476.281 145.125 476.656 145.156 476.844 145.156C478.531 145.156 480.438 144.625 482.562 143.562C484.75 142.5 486.844 141.187 488.844 139.625C490.906 138.062 492.688 136.344 494.188 134.469C495.688 132.531 496.594 130.687 496.906 128.937C497.094 127.875 496.875 126.656 496.25 125.281C495.625 123.906 494.781 122.594 493.719 121.344C492.719 120.031 491.594 118.937 490.344 118.062C489.156 117.187 488.031 116.75 486.969 116.75Z" fill="white"/>
<path d="M507.219 106.531C507.219 105.969 507.219 105.406 507.219 104.844C507.281 104.219 507.406 103.656 507.594 103.156C507.844 102.594 508.156 102.187 508.531 101.937C508.969 101.625 509.594 101.469 510.406 101.469C510.469 101.469 510.531 101.469 510.594 101.469C510.719 101.469 510.844 101.469 510.969 101.469C511.156 101.531 511.312 101.562 511.438 101.562C512.625 103.187 513.656 105.281 514.531 107.844C515.406 110.344 516.25 113.031 517.062 115.906C517.875 118.719 518.75 121.594 519.688 124.531C520.625 127.406 521.844 130 523.344 132.312C524.844 134.625 526.688 136.469 528.875 137.844C531.062 139.219 533.781 139.812 537.031 139.625C538.469 139.625 539.406 138.844 539.844 137.281C540.281 135.719 540.5 133.719 540.5 131.281C540.562 128.844 540.5 126.156 540.312 123.219C540.188 120.281 540.188 117.5 540.312 114.875C540.5 112.187 540.969 109.844 541.719 107.844C542.531 105.844 543.906 104.5 545.844 103.812C546.656 105.437 547.312 108 547.812 111.5C548.375 114.937 548.781 118.937 549.031 123.5C549.281 128 549.406 132.906 549.406 138.219C549.406 143.469 549.281 148.719 549.031 153.969C548.781 159.156 548.406 164.156 547.906 168.969C547.406 173.781 546.844 178 546.219 181.625C545.594 185.25 544.844 188.094 543.969 190.156C543.156 192.281 542.281 193.187 541.344 192.875C540.031 191.625 539 190 538.25 188C537.562 186 537.062 183.781 536.75 181.344C536.5 178.906 536.406 176.312 536.469 173.562C536.531 170.875 536.625 168.156 536.75 165.406C536.938 162.656 537.125 159.969 537.312 157.344C537.562 154.719 537.688 152.312 537.688 150.125C535.438 150.312 533.125 149.969 530.75 149.094C528.438 148.219 526.156 146.875 523.906 145.062C521.656 143.187 519.5 140.937 517.438 138.312C515.438 135.687 513.656 132.719 512.094 129.406C510.594 126.094 509.406 122.531 508.531 118.719C507.656 114.844 507.219 110.781 507.219 106.531Z" fill="white"/>
<path d="M596.375 98.5625C596.375 97.5625 596.562 96.6562 596.938 95.8437C597.375 94.9687 598.188 94.5312 599.375 94.5312C600.375 94.5312 601.344 95.5625 602.281 97.625C603.281 99.6875 604.281 102.344 605.281 105.594C606.344 108.781 607.438 112.312 608.562 116.187C609.688 120 610.875 123.719 612.125 127.344C613.375 130.906 614.688 134.125 616.062 137C617.438 139.812 618.906 141.781 620.469 142.906C621.969 142.281 623.156 141.187 624.031 139.625C624.969 138 625.719 136.094 626.281 133.906C626.844 131.656 627.25 129.25 627.5 126.687C627.812 124.062 628.094 121.469 628.344 118.906C628.656 116.281 628.969 113.75 629.281 111.312C629.594 108.812 630.031 106.625 630.594 104.75C631.219 102.875 632 101.375 632.938 100.25C633.875 99.125 635.062 98.5625 636.5 98.5625C637.375 98.5625 638.156 98.6562 638.844 98.8437C639.531 98.9687 640.125 99.5937 640.625 100.719C640.875 101.531 641.281 102.719 641.844 104.281C642.406 105.844 643.031 107.656 643.719 109.719C644.469 111.781 645.281 114 646.156 116.375C647.094 118.687 648.031 120.969 648.969 123.219C649.969 125.469 650.938 127.625 651.875 129.687C652.812 131.687 653.719 133.406 654.594 134.844C654.719 135.094 655.031 135.5 655.531 136.062C656.094 136.562 656.469 136.844 656.656 136.906L660.688 132.875C661.75 131.812 662.562 130.25 663.125 128.187C663.688 126.062 664.094 123.625 664.344 120.875C664.656 118.125 664.844 115.187 664.906 112.062C665.031 108.875 665.125 105.719 665.188 102.594C665.25 99.4687 665.375 96.4375 665.562 93.5C665.75 90.5625 666.062 88 666.5 85.8125C666.938 83.5625 667.562 81.7812 668.375 80.4687C669.188 79.1562 670.312 78.5 671.75 78.5C671.812 78.5 671.875 78.5312 671.938 78.5937C672.062 78.5937 672.188 78.5937 672.312 78.5937C672.5 78.6562 672.625 78.6875 672.688 78.6875C672.75 78.6875 672.906 78.8125 673.156 79.0625C673.406 79.25 673.625 79.4375 673.812 79.625C674.062 79.8125 674.25 80 674.375 80.1875C674.562 80.375 674.688 80.5312 674.75 80.6562C674.75 81.0937 674.75 81.875 674.75 83C674.812 84.125 674.844 85.3437 674.844 86.6562C674.844 87.9687 674.844 89.2187 674.844 90.4062C674.906 91.5312 674.938 92.3125 674.938 92.75C674.938 94 674.906 95.7187 674.844 97.9062C674.844 100.094 674.75 102.594 674.562 105.406C674.438 108.156 674.219 111.125 673.906 114.312C673.656 117.437 673.25 120.562 672.688 123.687C672.125 126.75 671.406 129.719 670.531 132.594C669.719 135.406 668.688 137.906 667.438 140.094C666.25 142.219 664.844 143.937 663.219 145.25C661.656 146.5 659.781 147.125 657.594 147.125C655.469 147.125 653.656 146.437 652.156 145.062C650.719 143.625 649.469 141.875 648.406 139.812C647.344 137.687 646.438 135.406 645.688 132.969C644.938 130.469 644.156 128.156 643.344 126.031C642.594 123.906 641.75 122.156 640.812 120.781C639.938 119.344 638.844 118.625 637.531 118.625C637.406 118.625 637.219 118.656 636.969 118.719C636.781 118.781 636.625 118.812 636.5 118.812C636.438 119.062 636.25 120.156 635.938 122.094C635.625 124.031 635.188 126.344 634.625 129.031C634.062 131.656 633.375 134.5 632.562 137.562C631.75 140.625 630.812 143.437 629.75 146C628.75 148.562 627.625 150.719 626.375 152.469C625.188 154.156 623.875 155 622.438 155C619.5 155 616.812 153.906 614.375 151.719C611.938 149.469 609.75 146.594 607.812 143.094C605.938 139.531 604.281 135.594 602.844 131.281C601.406 126.969 600.188 122.75 599.188 118.625C598.25 114.437 597.531 110.562 597.031 107C596.594 103.375 596.375 100.562 596.375 98.5625Z" fill="white"/>
<path d="M36.0312 150.969C36.3438 149.469 37.125 148.25 38.375 147.312C39.6875 146.312 41.1562 145.406 42.7812 144.594C44.4688 143.781 46.2188 143.031 48.0312 142.344C49.8438 141.594 51.5 140.812 53 140C54.5625 139.187 55.8438 138.25 56.8438 137.187C57.8438 136.062 58.3438 134.719 58.3438 133.156C58.3438 131.156 57.8125 129.5 56.75 128.187C55.75 126.875 54.375 125.75 52.625 124.812C50.9375 123.875 49 123.094 46.8125 122.469C44.625 121.844 42.375 121.219 40.0625 120.594C37.8125 119.906 35.5938 119.187 33.4062 118.437C31.2188 117.625 29.25 116.625 27.5 115.437C25.8125 114.25 24.4375 112.812 23.375 111.125C22.375 109.437 21.875 107.344 21.875 104.844C21.875 102.781 22.2812 100.844 23.0938 99.0312C23.9688 97.1562 25.0938 95.4062 26.4688 93.7812C27.9062 92.0937 29.5312 90.5625 31.3438 89.1875C33.2188 87.8125 35.1562 86.6562 37.1562 85.7187C39.2188 84.7812 41.2812 84.0625 43.3438 83.5625C45.4062 83 47.3125 82.7187 49.0625 82.7187H50.0938C50.6562 82.9062 51.4062 83.2187 52.3438 83.6562C53.2812 84.0937 54.1875 84.5312 55.0625 84.9687C55.9375 85.3437 56.6875 85.7187 57.3125 86.0937C57.9375 86.4062 58.25 86.5937 58.25 86.6562V88.8125C57.0625 88.9375 55.5312 89.1875 53.6562 89.5625C51.7812 89.875 49.8125 90.3125 47.75 90.875C45.6875 91.4375 43.5938 92.1562 41.4688 93.0312C39.3438 93.8437 37.4375 94.8125 35.75 95.9375C34.0625 97.0625 32.6875 98.375 31.625 99.875C30.5625 101.312 30.0312 102.969 30.0312 104.844C30.0312 107.531 30.9688 109.656 32.8438 111.219C34.7188 112.719 37.0625 113.969 39.875 114.969C42.6875 115.969 45.75 116.875 49.0625 117.687C52.4375 118.437 55.5312 119.375 58.3438 120.5C61.1562 121.562 63.5 123 65.375 124.812C67.25 126.562 68.1875 128.937 68.1875 131.937C68.1875 133.562 67.6875 135.281 66.6875 137.094C65.75 138.844 64.4688 140.594 62.8438 142.344C61.2812 144.031 59.5 145.656 57.5 147.219C55.5 148.781 53.4375 150.156 51.3125 151.344C49.25 152.469 47.2188 153.406 45.2188 154.156C43.2188 154.844 41.4375 155.187 39.875 155.187C39.375 155.187 38.8438 155.125 38.2812 155C37.7188 154.875 37.2188 154.687 36.7812 154.437C36.4062 154.125 36.0938 153.687 35.8438 153.125C35.6562 152.562 35.7188 151.844 36.0312 150.969Z" stroke="white" stroke-width="4" mask="url(#path-1-outside-1)"/>
<path d="M112.344 142.906C109.969 144.531 107.906 146 106.156 147.312C104.469 148.562 102.812 149.625 101.188 150.5C99.5625 151.375 97.8125 152.031 95.9375 152.469C94.125 152.906 91.875 153.125 89.1875 153.125C83.375 153.125 79.0625 151.594 76.25 148.531C73.4375 145.406 72.0312 140.781 72.0312 134.656C72.0312 132.281 72.3438 129.812 72.9688 127.25C73.5938 124.687 74.5 122.156 75.6875 119.656C76.9375 117.094 78.4062 114.687 80.0938 112.437C81.7812 110.125 83.6875 108.094 85.8125 106.344C87.9375 104.594 90.1875 103.219 92.5625 102.219C95 101.156 97.5625 100.625 100.25 100.625C104.75 101.062 108.281 102.187 110.844 104C113.406 105.75 115.344 108.031 116.656 110.844C117.969 113.594 118.875 116.687 119.375 120.125C119.875 123.5 120.25 127 120.5 130.625C120.812 134.25 121.188 137.875 121.625 141.5C122.062 145.125 122.969 148.469 124.344 151.531C123.531 153.594 122.75 155.031 122 155.844C121.312 156.719 120.531 156.875 119.656 156.312C118.781 155.75 117.75 154.375 116.562 152.187C115.438 150 114.031 146.906 112.344 142.906ZM80 134.844C80 138.406 80.6562 141.031 81.9688 142.719C83.3438 144.344 85.75 145.156 89.1875 145.156C91.75 145.156 94.1875 144.719 96.5 143.844C98.875 142.906 100.938 141.656 102.688 140.094C104.438 138.469 105.844 136.531 106.906 134.281C107.969 132.031 108.5 129.531 108.5 126.781C108.5 125.656 108.531 124.094 108.594 122.094C108.656 120.031 108.531 118 108.219 116C107.906 114 107.312 112.281 106.438 110.844C105.562 109.344 104.25 108.594 102.5 108.594C99.25 108.594 96.25 109.437 93.5 111.125C90.75 112.75 88.375 114.844 86.375 117.406C84.375 119.969 82.8125 122.812 81.6875 125.937C80.5625 129 80 131.969 80 134.844Z" stroke="white" stroke-width="4" mask="url(#path-1-outside-1)"/>
<path d="M129.688 106.156C130.125 104.656 130.625 103.969 131.188 104.094C131.812 104.219 132.562 104.937 133.438 106.25C134.312 107.562 135.281 109.312 136.344 111.5C137.469 113.687 138.656 116.062 139.906 118.625C141.156 121.125 142.5 123.687 143.938 126.312C145.438 128.937 146.969 131.344 148.531 133.531C150.156 135.719 151.844 137.531 153.594 138.969C155.406 140.406 157.25 141.25 159.125 141.5L166.625 102.687C166.75 101.625 167.219 101.031 168.031 100.906C168.906 100.719 169.75 100.625 170.562 100.625C173.375 100.625 174.781 101.937 174.781 104.562C174.781 105.937 174.656 108.125 174.406 111.125C174.156 114.125 173.75 117.437 173.188 121.062C172.625 124.625 171.938 128.312 171.125 132.125C170.312 135.875 169.344 139.312 168.219 142.437C167.094 145.562 165.781 148.125 164.281 150.125C162.844 152.125 161.25 153.125 159.5 153.125C156.938 153.125 154.406 152.281 151.906 150.594C149.406 148.844 147.031 146.594 144.781 143.844C142.594 141.031 140.562 137.906 138.688 134.469C136.875 131.031 135.281 127.594 133.906 124.156C132.594 120.656 131.562 117.312 130.812 114.125C130.062 110.937 129.688 108.281 129.688 106.156Z" stroke="white" stroke-width="4" mask="url(#path-1-outside-1)"/>
<path d="M220.719 142.906C218.344 144.531 216.281 146 214.531 147.312C212.844 148.562 211.188 149.625 209.562 150.5C207.938 151.375 206.188 152.031 204.312 152.469C202.5 152.906 200.25 153.125 197.562 153.125C191.75 153.125 187.438 151.594 184.625 148.531C181.812 145.406 180.406 140.781 180.406 134.656C180.406 132.281 180.719 129.812 181.344 127.25C181.969 124.687 182.875 122.156 184.062 119.656C185.312 117.094 186.781 114.687 188.469 112.437C190.156 110.125 192.062 108.094 194.188 106.344C196.312 104.594 198.562 103.219 200.938 102.219C203.375 101.156 205.938 100.625 208.625 100.625C213.125 101.062 216.656 102.187 219.219 104C221.781 105.75 223.719 108.031 225.031 110.844C226.344 113.594 227.25 116.687 227.75 120.125C228.25 123.5 228.625 127 228.875 130.625C229.188 134.25 229.562 137.875 230 141.5C230.438 145.125 231.344 148.469 232.719 151.531C231.906 153.594 231.125 155.031 230.375 155.844C229.688 156.719 228.906 156.875 228.031 156.312C227.156 155.75 226.125 154.375 224.938 152.187C223.812 150 222.406 146.906 220.719 142.906ZM188.375 134.844C188.375 138.406 189.031 141.031 190.344 142.719C191.719 144.344 194.125 145.156 197.562 145.156C200.125 145.156 202.562 144.719 204.875 143.844C207.25 142.906 209.312 141.656 211.062 140.094C212.812 138.469 214.219 136.531 215.281 134.281C216.344 132.031 216.875 129.531 216.875 126.781C216.875 125.656 216.906 124.094 216.969 122.094C217.031 120.031 216.906 118 216.594 116C216.281 114 215.688 112.281 214.812 110.844C213.938 109.344 212.625 108.594 210.875 108.594C207.625 108.594 204.625 109.437 201.875 111.125C199.125 112.75 196.75 114.844 194.75 117.406C192.75 119.969 191.188 122.812 190.062 125.937C188.938 129 188.375 131.969 188.375 134.844Z" stroke="white" stroke-width="4" mask="url(#path-1-outside-1)"/>
<path d="M238.625 123.406C238.625 121.781 239.031 120.625 239.844 119.937C240.656 119.187 241.969 118.812 243.781 118.812H244.719C244.906 119.812 245.125 120.969 245.375 122.281C245.625 123.594 246 124.937 246.5 126.312C247 127.687 247.594 128.969 248.281 130.156C248.969 131.281 249.812 132.187 250.812 132.875C250.875 130.687 251.406 128.594 252.406 126.594C253.469 124.531 254.75 122.719 256.25 121.156C257.812 119.531 259.5 118.187 261.312 117.125C263.188 116 265.031 115.25 266.844 114.875H268.906C271.906 114.875 274.469 115.562 276.594 116.937C278.719 118.25 280.469 120 281.844 122.187C283.281 124.312 284.375 126.75 285.125 129.5C285.875 132.25 286.438 135.062 286.812 137.937C287.25 140.75 287.5 143.5 287.562 146.187C287.688 148.812 287.75 151.062 287.75 152.937H280.906C280.531 149.187 280.062 145.594 279.5 142.156C279.312 140.781 279.062 139.344 278.75 137.844C278.438 136.281 278.094 134.844 277.719 133.531C277.344 132.156 276.938 130.906 276.5 129.781C276.062 128.594 275.562 127.594 275 126.781C274.75 126.531 274.406 126.187 273.969 125.75C273.594 125.312 273.188 124.875 272.75 124.437C272.312 124 271.906 123.625 271.531 123.312C271.156 123 270.938 122.844 270.875 122.844C269 122.344 267.375 122.719 266 123.969C264.625 125.156 263.406 126.781 262.344 128.844C261.281 130.906 260.406 133.25 259.719 135.875C259.094 138.5 258.562 141.031 258.125 143.469C257.688 145.844 257.375 147.937 257.188 149.75C257 151.5 256.875 152.562 256.812 152.937C255.25 154.062 253.781 154.406 252.406 153.969C251.031 153.469 249.719 152.469 248.469 150.969C247.281 149.469 246.188 147.594 245.188 145.344C244.25 143.094 243.375 140.719 242.562 138.219C241.75 135.656 241 133.094 240.312 130.531C239.688 127.969 239.125 125.594 238.625 123.406Z" stroke="white" stroke-width="4" mask="url(#path-1-outside-1)"/>
<path d="M337.438 85.0625C338.188 81.25 339.562 78.25 341.562 76.0625C343.562 73.8125 345.844 72.2812 348.406 71.4687C351.031 70.6562 353.812 70.4687 356.75 70.9062C359.75 71.2812 362.562 72.1875 365.188 73.625C367.875 75.0625 370.219 76.9375 372.219 79.25C374.219 81.5 375.625 84.0937 376.438 87.0312C377.25 89.9062 377.25 93.0312 376.438 96.4062C375.625 99.7812 373.781 103.25 370.906 106.812C373.156 107.625 375.25 108.437 377.188 109.25C379.125 110.062 380.75 111.062 382.062 112.25C383.438 113.437 384.5 114.875 385.25 116.562C386 118.25 386.375 120.344 386.375 122.844C386.375 124.906 386 127.094 385.25 129.406C384.5 131.719 383.438 134 382.062 136.25C380.75 138.5 379.188 140.656 377.375 142.719C375.625 144.719 373.719 146.5 371.656 148.062C369.594 149.625 367.469 150.875 365.281 151.812C363.156 152.687 361.062 153.125 359 153.125C357.625 153.125 356.281 152.25 354.969 150.5C353.656 148.75 352.375 146.437 351.125 143.562C349.875 140.687 348.656 137.375 347.469 133.625C346.281 129.875 345.188 126 344.188 122C343.188 117.937 342.281 113.937 341.469 110C340.656 106 339.938 102.312 339.312 98.9375C338.75 95.5625 338.281 92.6562 337.906 90.2187C337.594 87.7187 337.438 86 337.438 85.0625ZM354.125 125.656C354.125 126.719 354.375 128.125 354.875 129.875C355.375 131.625 356 133.375 356.75 135.125C357.562 136.875 358.438 138.5 359.375 140C360.312 141.437 361.312 142.406 362.375 142.906C363.25 143.406 364.281 143.375 365.469 142.812C366.656 142.187 367.844 141.25 369.031 140C370.281 138.687 371.469 137.219 372.594 135.594C373.719 133.906 374.719 132.25 375.594 130.625C376.531 129 377.25 127.5 377.75 126.125C378.312 124.687 378.594 123.594 378.594 122.844C378.594 121.219 378.375 119.906 377.938 118.906C377.5 117.844 376.844 117 375.969 116.375C375.156 115.75 374.156 115.312 372.969 115.062C371.844 114.812 370.594 114.687 369.219 114.687C367.656 114.687 366 114.937 364.25 115.437C362.5 115.937 360.875 116.656 359.375 117.594C357.938 118.531 356.688 119.687 355.625 121.062C354.625 122.437 354.125 123.969 354.125 125.656ZM348.125 93.7812C348.125 94.9062 348.094 96.3125 348.031 98C347.969 99.625 347.969 101.312 348.031 103.062C348.094 104.812 348.281 106.562 348.594 108.312C348.906 110.062 349.469 111.562 350.281 112.812C353.344 112.25 356 111.187 358.25 109.625C360.562 108.062 362.406 106.25 363.781 104.187C365.219 102.062 366.25 99.8125 366.875 97.4375C367.5 95.0625 367.719 92.75 367.531 90.5C367.406 88.25 366.875 86.1875 365.938 84.3125C365.062 82.4375 363.812 81 362.188 80C360.562 78.9375 358.594 78.4062 356.281 78.4062C353.969 78.4062 351.312 79.1562 348.312 80.6562C348.312 81.1562 348.281 82.0312 348.219 83.2812C348.219 84.5312 348.188 85.8437 348.125 87.2187C348.125 88.5937 348.125 89.9062 348.125 91.1562C348.125 92.4062 348.125 93.2812 348.125 93.7812Z" stroke="white" stroke-width="4" mask="url(#path-1-outside-1)"/>
<path d="M432.688 142.906C430.312 144.531 428.25 146 426.5 147.312C424.812 148.562 423.156 149.625 421.531 150.5C419.906 151.375 418.156 152.031 416.281 152.469C414.469 152.906 412.219 153.125 409.531 153.125C403.719 153.125 399.406 151.594 396.594 148.531C393.781 145.406 392.375 140.781 392.375 134.656C392.375 132.281 392.688 129.812 393.312 127.25C393.938 124.687 394.844 122.156 396.031 119.656C397.281 117.094 398.75 114.687 400.438 112.437C402.125 110.125 404.031 108.094 406.156 106.344C408.281 104.594 410.531 103.219 412.906 102.219C415.344 101.156 417.906 100.625 420.594 100.625C425.094 101.062 428.625 102.187 431.188 104C433.75 105.75 435.688 108.031 437 110.844C438.312 113.594 439.219 116.687 439.719 120.125C440.219 123.5 440.594 127 440.844 130.625C441.156 134.25 441.531 137.875 441.969 141.5C442.406 145.125 443.312 148.469 444.688 151.531C443.875 153.594 443.094 155.031 442.344 155.844C441.656 156.719 440.875 156.875 440 156.312C439.125 155.75 438.094 154.375 436.906 152.187C435.781 150 434.375 146.906 432.688 142.906ZM400.344 134.844C400.344 138.406 401 141.031 402.312 142.719C403.688 144.344 406.094 145.156 409.531 145.156C412.094 145.156 414.531 144.719 416.844 143.844C419.219 142.906 421.281 141.656 423.031 140.094C424.781 138.469 426.188 136.531 427.25 134.281C428.312 132.031 428.844 129.531 428.844 126.781C428.844 125.656 428.875 124.094 428.938 122.094C429 120.031 428.875 118 428.562 116C428.25 114 427.656 112.281 426.781 110.844C425.906 109.344 424.594 108.594 422.844 108.594C419.594 108.594 416.594 109.437 413.844 111.125C411.094 112.75 408.719 114.844 406.719 117.406C404.719 119.969 403.156 122.812 402.031 125.937C400.906 129 400.344 131.969 400.344 134.844Z" stroke="white" stroke-width="4" mask="url(#path-1-outside-1)"/>
<path d="M464.75 150.969C462.812 145.344 460.969 140.094 459.219 135.219C457.531 130.281 456.031 125.469 454.719 120.781C453.469 116.031 452.469 111.219 451.719 106.344C450.969 101.469 450.594 96.25 450.594 90.6875C450.594 90.25 450.594 89.4687 450.594 88.3437C450.656 87.1562 450.688 85.9375 450.688 84.6875C450.688 83.4375 450.688 82.25 450.688 81.125C450.75 79.9375 450.781 79.125 450.781 78.6875C451.344 77.4375 452.312 76.2812 453.688 75.2187C455.125 74.1562 456.562 73.625 458 73.625C458 78.25 458.062 83.1875 458.188 88.4375C458.312 93.625 458.688 98.8125 459.312 104C460 109.187 461.062 114.281 462.5 119.281C464 124.219 466.094 128.75 468.781 132.875C468.844 131.375 468.906 129.719 468.969 127.906C469.031 126.094 469.188 124.281 469.438 122.469C469.75 120.656 470.219 118.906 470.844 117.219C471.469 115.531 472.375 114.031 473.562 112.719C474.812 111.406 476.406 110.375 478.344 109.625C480.344 108.875 482.844 108.531 485.844 108.594C488.531 108.594 490.938 109.094 493.062 110.094C495.25 111.094 497.062 112.469 498.5 114.219C500 115.906 501.125 117.906 501.875 120.219C502.688 122.469 503.094 124.875 503.094 127.437C503.094 130.875 502.25 134.25 500.562 137.562C498.875 140.875 496.625 143.844 493.812 146.469C491.062 149.094 487.969 151.219 484.531 152.844C481.094 154.406 477.594 155.187 474.031 155.187C472.219 155.187 470.469 154.875 468.781 154.25C467.094 153.562 465.75 152.469 464.75 150.969ZM486.969 116.75C485.719 117.437 484.406 118.25 483.031 119.187C481.656 120.125 480.375 121.594 479.188 123.594C478.062 125.531 477.094 128.187 476.281 131.562C475.469 134.937 474.969 139.406 474.781 144.969C474.906 144.969 475.219 145 475.719 145.062C476.281 145.125 476.656 145.156 476.844 145.156C478.531 145.156 480.438 144.625 482.562 143.562C484.75 142.5 486.844 141.187 488.844 139.625C490.906 138.062 492.688 136.344 494.188 134.469C495.688 132.531 496.594 130.687 496.906 128.937C497.094 127.875 496.875 126.656 496.25 125.281C495.625 123.906 494.781 122.594 493.719 121.344C492.719 120.031 491.594 118.937 490.344 118.062C489.156 117.187 488.031 116.75 486.969 116.75Z" stroke="white" stroke-width="4" mask="url(#path-1-outside-1)"/>
<path d="M507.219 106.531C507.219 105.969 507.219 105.406 507.219 104.844C507.281 104.219 507.406 103.656 507.594 103.156C507.844 102.594 508.156 102.187 508.531 101.937C508.969 101.625 509.594 101.469 510.406 101.469C510.469 101.469 510.531 101.469 510.594 101.469C510.719 101.469 510.844 101.469 510.969 101.469C511.156 101.531 511.312 101.562 511.438 101.562C512.625 103.187 513.656 105.281 514.531 107.844C515.406 110.344 516.25 113.031 517.062 115.906C517.875 118.719 518.75 121.594 519.688 124.531C520.625 127.406 521.844 130 523.344 132.312C524.844 134.625 526.688 136.469 528.875 137.844C531.062 139.219 533.781 139.812 537.031 139.625C538.469 139.625 539.406 138.844 539.844 137.281C540.281 135.719 540.5 133.719 540.5 131.281C540.562 128.844 540.5 126.156 540.312 123.219C540.188 120.281 540.188 117.5 540.312 114.875C540.5 112.187 540.969 109.844 541.719 107.844C542.531 105.844 543.906 104.5 545.844 103.812C546.656 105.437 547.312 108 547.812 111.5C548.375 114.937 548.781 118.937 549.031 123.5C549.281 128 549.406 132.906 549.406 138.219C549.406 143.469 549.281 148.719 549.031 153.969C548.781 159.156 548.406 164.156 547.906 168.969C547.406 173.781 546.844 178 546.219 181.625C545.594 185.25 544.844 188.094 543.969 190.156C543.156 192.281 542.281 193.187 541.344 192.875C540.031 191.625 539 190 538.25 188C537.562 186 537.062 183.781 536.75 181.344C536.5 178.906 536.406 176.312 536.469 173.562C536.531 170.875 536.625 168.156 536.75 165.406C536.938 162.656 537.125 159.969 537.312 157.344C537.562 154.719 537.688 152.312 537.688 150.125C535.438 150.312 533.125 149.969 530.75 149.094C528.438 148.219 526.156 146.875 523.906 145.062C521.656 143.187 519.5 140.937 517.438 138.312C515.438 135.687 513.656 132.719 512.094 129.406C510.594 126.094 509.406 122.531 508.531 118.719C507.656 114.844 507.219 110.781 507.219 106.531Z" stroke="white" stroke-width="4" mask="url(#path-1-outside-1)"/>
<path d="M596.375 98.5625C596.375 97.5625 596.562 96.6562 596.938 95.8437C597.375 94.9687 598.188 94.5312 599.375 94.5312C600.375 94.5312 601.344 95.5625 602.281 97.625C603.281 99.6875 604.281 102.344 605.281 105.594C606.344 108.781 607.438 112.312 608.562 116.187C609.688 120 610.875 123.719 612.125 127.344C613.375 130.906 614.688 134.125 616.062 137C617.438 139.812 618.906 141.781 620.469 142.906C621.969 142.281 623.156 141.187 624.031 139.625C624.969 138 625.719 136.094 626.281 133.906C626.844 131.656 627.25 129.25 627.5 126.687C627.812 124.062 628.094 121.469 628.344 118.906C628.656 116.281 628.969 113.75 629.281 111.312C629.594 108.812 630.031 106.625 630.594 104.75C631.219 102.875 632 101.375 632.938 100.25C633.875 99.125 635.062 98.5625 636.5 98.5625C637.375 98.5625 638.156 98.6562 638.844 98.8437C639.531 98.9687 640.125 99.5937 640.625 100.719C640.875 101.531 641.281 102.719 641.844 104.281C642.406 105.844 643.031 107.656 643.719 109.719C644.469 111.781 645.281 114 646.156 116.375C647.094 118.687 648.031 120.969 648.969 123.219C649.969 125.469 650.938 127.625 651.875 129.687C652.812 131.687 653.719 133.406 654.594 134.844C654.719 135.094 655.031 135.5 655.531 136.062C656.094 136.562 656.469 136.844 656.656 136.906L660.688 132.875C661.75 131.812 662.562 130.25 663.125 128.187C663.688 126.062 664.094 123.625 664.344 120.875C664.656 118.125 664.844 115.187 664.906 112.062C665.031 108.875 665.125 105.719 665.188 102.594C665.25 99.4687 665.375 96.4375 665.562 93.5C665.75 90.5625 666.062 88 666.5 85.8125C666.938 83.5625 667.562 81.7812 668.375 80.4687C669.188 79.1562 670.312 78.5 671.75 78.5C671.812 78.5 671.875 78.5312 671.938 78.5937C672.062 78.5937 672.188 78.5937 672.312 78.5937C672.5 78.6562 672.625 78.6875 672.688 78.6875C672.75 78.6875 672.906 78.8125 673.156 79.0625C673.406 79.25 673.625 79.4375 673.812 79.625C674.062 79.8125 674.25 80 674.375 80.1875C674.562 80.375 674.688 80.5312 674.75 80.6562C674.75 81.0937 674.75 81.875 674.75 83C674.812 84.125 674.844 85.3437 674.844 86.6562C674.844 87.9687 674.844 89.2187 674.844 90.4062C674.906 91.5312 674.938 92.3125 674.938 92.75C674.938 94 674.906 95.7187 674.844 97.9062C674.844 100.094 674.75 102.594 674.562 105.406C674.438 108.156 674.219 111.125 673.906 114.312C673.656 117.437 673.25 120.562 672.688 123.687C672.125 126.75 671.406 129.719 670.531 132.594C669.719 135.406 668.688 137.906 667.438 140.094C666.25 142.219 664.844 143.937 663.219 145.25C661.656 146.5 659.781 147.125 657.594 147.125C655.469 147.125 653.656 146.437 652.156 145.062C650.719 143.625 649.469 141.875 648.406 139.812C647.344 137.687 646.438 135.406 645.688 132.969C644.938 130.469 644.156 128.156 643.344 126.031C642.594 123.906 641.75 122.156 640.812 120.781C639.938 119.344 638.844 118.625 637.531 118.625C637.406 118.625 637.219 118.656 636.969 118.719C636.781 118.781 636.625 118.812 636.5 118.812C636.438 119.062 636.25 120.156 635.938 122.094C635.625 124.031 635.188 126.344 634.625 129.031C634.062 131.656 633.375 134.5 632.562 137.562C631.75 140.625 630.812 143.437 629.75 146C628.75 148.562 627.625 150.719 626.375 152.469C625.188 154.156 623.875 155 622.438 155C619.5 155 616.812 153.906 614.375 151.719C611.938 149.469 609.75 146.594 607.812 143.094C605.938 139.531 604.281 135.594 602.844 131.281C601.406 126.969 600.188 122.75 599.188 118.625C598.25 114.437 597.531 110.562 597.031 107C596.594 103.375 596.375 100.562 596.375 98.5625Z" stroke="white" stroke-width="4" mask="url(#path-1-outside-1)"/>
</svg>
